<svg id="Layer_1" data-name="Layer 1" xmlns="http://www.w3.org/2000/svg" viewBox="0 0 202 40"><defs><style>.cls-1{fill:#fefefe;}.cls-2{fill:#002ef7;}.cls-3{fill:#0734f7;}.cls-4{fill:#0935f7;}.cls-5{fill:#0632f7;}.cls-6{fill:#0633f7;}.cls-7{fill:#0834f7;}.cls-8{fill:#0733f7;}.cls-9{fill:#0531f7;}.cls-10{fill:#022ff7;}.cls-11{fill:#143ef8;}.cls-12{fill:#0330f7;}.cls-13{fill:#aab9fc;}.cls-14{fill:#2c52f8;}.cls-15{fill:#2b51f8;}.cls-16{fill:#153ef7;}.cls-17{fill:#a5b5fc;}.cls-18{fill:#ced6fd;}.cls-19{fill:#d5dcfd;}.cls-20{fill:#3055f8;}.cls-21{fill:#c4cefc;}.cls-22{fill:#2048f8;}.cls-23{fill:#4c6cf9;}.cls-24{fill:#2047f8;}.cls-25{fill:#1e46f7;}.cls-26{fill:#4062f8;}.cls-27{fill:#fdfdfe;}.cls-28{fill:#fafbfe;}.cls-29{fill:#fcfcfe;}.cls-30{fill:#fbfcfe;}.cls-31{fill:#f9fafe;}.cls-32{fill:#fcfdfe;}.cls-33{fill:#012ef7;}</style></defs><path class="cls-1" d="M1690,1330q-49.92,0-99.85,0c-.94,0-1.15-.21-1.15-1.15q.06-18.91,0-37.83c0-.85.17-1,1-1q100,0,200,0c.85,0,1,.17,1,1q-.06,19,0,38c0,.85-.17,1-1,1Q1740,1330,1690,1330Z" transform="translate(-1589 -1290)"/><path class="cls-2" d="M1606.86,1303a18.67,18.67,0,0,0,2.33-5.48,5.63,5.63,0,0,1,3-3.4c1.29-.73,2.6-1.43,3.88-2.18,1.55-.91,2.62-.55,3.44,1a41.58,41.58,0,0,1,1.91,5.46,2.47,2.47,0,0,1-.16,1.81c-1,2.44-2,4.89-2.94,7.32-.24.59-.33,1,.43,1.33a2.71,2.71,0,0,1,1.57,2.69c-.08,4-.1,7.9,0,11.85.06,2.66-2.86,5.62-5.55,5.61-5.66,0-11.32,0-17,0a6,6,0,0,1-5.49-5.52c0-4,0-8.07,0-12.1a2.86,2.86,0,0,1,1.71-2.62c.46-.27.53-.45.35-1-1.28-3.51-2.69-7-4.27-10.34a2.55,2.55,0,0,1,1.4-3.28c2.64-1,5.33-1.85,8-2.62a3.17,3.17,0,0,1,3.68,2.19,27.3,27.3,0,0,0,1.75,4.65C1605.75,1299.85,1606,1301.51,1606.86,1303Z" transform="translate(-1589 -1290)"/><path class="cls-2" d="M1747.49,1327c-13.37,0-26.73,0-40.1,0-1.27,0-1.32-.52-1.26-1.45s-.27-1.62,1.23-1.62q40.16.07,80.32,0c1.48,0,1.13.83,1.21,1.65.09,1-.08,1.42-1.3,1.42C1774.22,1327,1760.86,1327,1747.49,1327Z" transform="translate(-1589 -1290)"/><path class="cls-2" d="M1656.53,1306.47a3.94,3.94,0,0,0-3.56-.49c-.34.21-.23.5-.23.76,0,1.79,0,3.58,0,5.36,0,1,.62,1.28,1.25,1.48,1.09.34.6,1.12.58,1.73,0,.77-.7.41-1.07.41-2.08,0-4.16,0-6.24,0-.54,0-1.08,0-.92-.75s-.66-1.6.62-1.78c.83-.13,1.17-.46,1.11-1.37-.09-1.58-.06-3.16,0-4.74,0-.81-.17-1.41-1-1.58-1.09-.2-.7-1-.76-1.67-.07-.84.61-.62,1-.7,1.23-.22,2.45-.44,3.69-.59.61-.08,1.32-.34,1.57.67.12.52.56.07.8,0,1.86-.64,3.87-1.4,5.66-.36,1.55.9,2.73.31,4.11,0a7,7,0,0,1,5.33.25c1.46.79,1.73,2.14,1.79,3.57.06,1.7.07,3.41,0,5.11a1.49,1.49,0,0,0,1.19,1.75c1.08.26.74,1,.72,1.68,0,.83-.67.56-1.11.56-1.75,0-3.5-.06-5.24,0-1,.06-1.44-.26-1.33-1.27a.89.89,0,0,1,.11-1.22c.75,0,1.09-.35,1.06-1.17-.07-1.65-.05-3.31-.06-5,0-.94-.51-1.35-1.4-1.37h-.25c-2.56-.08-2.6,0-2.6,2.45,0,.91.07,1.83,0,2.74-.12,1.22.09,2.15,1.43,2.58,1,.31.54,1.21.48,1.83s-.72.35-1.11.36c-1.7,0-3.4,0-5.1,0-.5,0-1.37.48-1.42-.61,0-.85-.44-1.87.93-2.1a3.1,3.1,0,0,0,.22-2C1656.68,1309.48,1657,1308,1656.53,1306.47Z" transform="translate(-1589 -1290)"/><path class="cls-2" d="M1644.3,1300.77c-.07.78-.1,1.58-.23,2.35-.07.42.28,1.07-.55,1.16s-1.58.51-2.09-.46a3.7,3.7,0,0,0-4-2c-.52,0-1.27-.28-1.44.57a1.62,1.62,0,0,0,1,2c1.71.82,3.42,1.66,5.15,2.44a4.65,4.65,0,0,1,3,4.61,4.5,4.5,0,0,1-2.85,3.62c-3.58,1.62-7.3,1.17-11,.37-.53-.11-.64-.39-.58-.89a15.53,15.53,0,0,0,.18-2.36c0-1.26.55-1.73,1.74-1.8a.92.92,0,0,1,1,.49c1.3,2,3.32,2.57,5.76,1.71a.7.7,0,0,0,0-1c-.36-1-1.33-1.33-2.19-1.68a13.5,13.5,0,0,1-5-2.9,4.71,4.71,0,0,1,0-6c2.63-2.74,5.87-2.46,9.15-2.06a24.36,24.36,0,0,1,2.89.71C1644.62,1299.92,1644.53,1300.34,1644.3,1300.77Z" transform="translate(-1589 -1290)"/><path class="cls-2" d="M1789.51,1315.26c0,.49-.33.47-.68.47-2.08,0-4.16,0-6.24,0-.58,0-.92-.17-.81-.76s-.57-1.54.5-1.74c.83-.17,1-.56.93-1.27,0-1.5,0-3,0-4.49,0-1.23-.61-1.68-1.75-1.73-2.57-.12-2.72,0-2.72,2.49,0,1.17.06,2.33,0,3.49a1.47,1.47,0,0,0,1.2,1.75c1.09.26.72,1,.7,1.68,0,.83-.69.56-1.12.56-2.25,0-4.49,0-6.74,0a.66.66,0,0,1-.26-.57,1.16,1.16,0,0,0-.22-.88c-.11-.53-.13-1,.62-1,.95,0,1.16-.63,1.12-1.51-.07-1.53-.07-3.07,0-4.61a1.37,1.37,0,0,0-1-1.6c-1-.27-.73-1-.75-1.67,0-.85.7-.58,1.08-.65,1.34-.27,2.71-.45,4.06-.64.5-.06,1-.11,1.13.61s.55.27.86.16a10.92,10.92,0,0,1,5.12-.8,3.9,3.9,0,0,1,3.27,3.09,25.12,25.12,0,0,1,.13,5.48c-.06,1.34.29,2.24,1.58,2.69A1.26,1.26,0,0,1,1789.51,1315.26Z" transform="translate(-1589 -1290)"/><path class="cls-2" d="M1713.28,1315c-.15-1-.31-2.09,1.23-2.18.56,0,.48-.46.48-.83,0-3,0-6,0-9a1.4,1.4,0,0,0-1.15-1.42c-1.31-.45-.59-1.47-.62-2.21s.75-.46,1.16-.46c2.21,0,4.42,0,6.63,0,.48,0,1.12-.11,1,.69s.73,1.85-.61,2-1.42.83-1.4,1.91c.07,2.74.06,5.49,0,8.23,0,.86.28,1,1.06,1,1.72.11,3.18-.15,4.14-1.78.53-.91,1.48-.74,2.35-.68.51,0,.45.4.43.73-.08,1.37-.19,2.74-.25,4.11,0,.62-.41.61-.85.61l-13.12,0C1713.51,1315.52,1713.48,1315.2,1713.28,1315Z" transform="translate(-1589 -1290)"/><path class="cls-2" d="M1757.4,1309.27c0,.71,0,1.42,0,2.12-.07.9.07,1.62,1.08,1.92.78.23.55.89.55,1.46s-.54.57-.89.64c-1,.19-2.06.3-3.08.47-.65.1-1.24.25-1.35-.72-.07-.64-.49-.22-.74-.12a10.56,10.56,0,0,1-5.08,1c-2.66-.25-4.25-2.73-3-4.82a5.18,5.18,0,0,1,3.11-2.1,21,21,0,0,1,4.18-.7c.35,0,1,.21,1-.39a1.78,1.78,0,0,0-.49-1.8,4.38,4.38,0,0,0-2.49-.61c-1.1-.12-1.56.5-1.92,1.37-.28.66-.84.79-1.53.73s-1.1-.21-1.11-1c0-.29-.32-.56-.4-.86-.57-2.3-.54-2.4,1.84-2.88a17.36,17.36,0,0,1,7.79-.15,3,3,0,0,1,2.33,2.61A21.66,21.66,0,0,1,1757.4,1309.27Z" transform="translate(-1589 -1290)"/><path class="cls-2" d="M1685.81,1309c0,.79,0,1.58,0,2.36s.09,1.63,1.1,1.91c.78.22.6.87.6,1.44s-.6.61-1,.69c-.94.19-1.89.3-2.84.42-.66.09-1.37.42-1.57-.73-.1-.6-.72-.16-1,0a8.84,8.84,0,0,1-4.84.9c-2.43-.22-4-2.35-3.1-4.43.6-1.47,2-2,3.36-2.49a15.82,15.82,0,0,1,4.42-.7c.93,0,.93-.61.69-1.16a2.17,2.17,0,0,0-2.21-1.61c-1,.06-2.1-.27-2.56,1.11a1.42,1.42,0,0,1-1.5,1,1.38,1.38,0,0,1-1.4-1,2.49,2.49,0,0,1-.16-.33c-.79-2.42-.49-3,2-3.46a16.55,16.55,0,0,1,7.41-.1,3.07,3.07,0,0,1,2.53,3.12c.07,1,0,2.08,0,3.12Z" transform="translate(-1589 -1290)"/><path class="cls-2" d="M1736.82,1316c-6.15.15-8.29-5.08-6.39-9.89a6,6,0,0,1,4.25-3.46c2.62-.7,5.87,0,7.11,1.71a7.6,7.6,0,0,1,1.61,4c0,.68-.15,1-.84,1-2.26.33-4.51.73-6.76,1.12-.3.05-.79-.07-.85.3s.26.69.59,1a3.94,3.94,0,0,0,3.5.78,5.49,5.49,0,0,0,1.47-.3c1.24-.55,1.66-.12,1.86,1.16.12.78,0,1.15-.7,1.44A11.93,11.93,0,0,1,1736.82,1316Z" transform="translate(-1589 -1290)"/><path class="cls-2" d="M1702.29,1309.47c0-.93,0-1.6,0-2.26.06-1,.07-2-1.43-1.65-.3.06-.6,0-.58-.46,0-.59-.19-1.23.44-1.72,1.36-1.05,2.73-2.11,4-3.25a1.92,1.92,0,0,1,1.86-.32c.71.15.36.83.37,1.26,0,1.61,0,1.61,1.7,1.61h1c2.17,0,2.13,0,2.06,2.13,0,.71-.31.82-.9.8-1,0-2.08,0-3.12,0-.53,0-.74.16-.73.72,0,1.62,0,3.24,0,4.86,0,1,.5,1.65,1.62,1.58.42,0,.84,0,1.25,0,1.48-.1,2,.46,1.85,2,0,.28-.08.48-.38.56-2.57.72-5.12,1.51-7.68-.15a2.92,2.92,0,0,1-1.2-1.92A17.91,17.91,0,0,1,1702.29,1309.47Z" transform="translate(-1589 -1290)"/><path class="cls-2" d="M1694.85,1304c1.34-.64,2.3-1.61,3.69-1.51.24,0,.67.06.69.13a8.08,8.08,0,0,1-.2,3.32c-.2.69-.86.31-1.3.31-2.73,0-2.73,0-2.73,2.68,0,.91.06,1.83,0,2.74a1.49,1.49,0,0,0,1.26,1.82c1,.21,1,.87.94,1.69s-.82.53-1.26.54c-2.08,0-4.16,0-6.25,0-.51,0-1.2.13-1.1-.74.07-.65-.62-1.66.75-1.8.75-.07,1-.5,1-1.26-.07-1.58-.06-3.16,0-4.74,0-.86-.17-1.51-1-1.72-1-.26-.72-1-.73-1.67,0-.86.7-.55,1.09-.64,1-.23,2.05-.33,3.07-.53S1694.86,1302.24,1694.85,1304Z" transform="translate(-1589 -1290)"/><path class="cls-2" d="M1760.5,1303.3c1.55-.26,3.1-.53,4.66-.76.39-.06.95-.17,1,.42.11,1.38.83.78,1.42.46a4.63,4.63,0,0,1,2.63-1c.62,0,.74.25.72.82-.11,2.88-.1,2.94-3,3-1.2,0-1.58.41-1.47,1.6a29,29,0,0,1,0,3.73c0,1,.18,1.59,1.21,1.85.39.1.89.24,1,.79.25,1.06-.08,1.5-1.18,1.5-2.08,0-4.16-.07-6.24,0-1.19.06-1-.88-1.23-1.44-.31-.72.16-1,.84-1.14s.9-.51.87-1.21c0-1.53-.09-3.07,0-4.6a1.8,1.8,0,0,0-1.32-2.07c-.27-.1-.61-.11-.47-.55a1.18,1.18,0,0,0,.22-.89A.67.67,0,0,1,1760.5,1303.3Z" transform="translate(-1589 -1290)"/><path class="cls-3" d="M1633.46,1326.27a2.92,2.92,0,0,1-3.2-3,3.23,3.23,0,1,1,3.2,3Z" transform="translate(-1589 -1290)"/><path class="cls-4" d="M1662.72,1324.84a2.58,2.58,0,0,1-3.46,1.23,2.41,2.41,0,0,1,1.5-4.54,2.26,2.26,0,0,1,1.8,1,1.74,1.74,0,0,1,.3,1.41c-.21.58-.79.26-1.21.29-.74,0-1.49,0-2.24,0-.22,0-.53-.12-.63.21a.58.58,0,0,0,.25.66c.71.44,1.46.87,2.27.25A1.56,1.56,0,0,1,1662.72,1324.84Z" transform="translate(-1589 -1290)"/><path class="cls-5" d="M1672.11,1321.66c-.44.1-.86.25-1.2-.27a1.19,1.19,0,0,0-1.46-.37c-.38.11-.83.2-.88.74s.32.7.73.85c.7.25,1.41.48,2.1.77a1.32,1.32,0,0,1,.61,2c-.71,1.1-3.25,1.15-4,.08-.15-.21-.45-.5-.11-.74s.53-.07.74.21a1.72,1.72,0,0,0,1.52.65,1,1,0,0,0,1-.77.89.89,0,0,0-.66-1.06c-.54-.2-1.12-.31-1.67-.48a1.38,1.38,0,0,1-1.08-1.36,1.48,1.48,0,0,1,1.07-1.51A2.42,2.42,0,0,1,1672.11,1321.66Z" transform="translate(-1589 -1290)"/><path class="cls-6" d="M1692.29,1323.94a2.32,2.32,0,0,1-2.63,2.34,2.39,2.39,0,1,1,.08-4.76C1691.62,1321.66,1692.36,1322.61,1692.29,1323.94Z" transform="translate(-1589 -1290)"/><path class="cls-6" d="M1694,1323.47a2.5,2.5,0,0,1,3.21-1.89,2.33,2.33,0,0,1,1.86,3,2.45,2.45,0,0,1-2.32,1.7c-1.46.16-2.11-.29-2.73-1.77A.84.84,0,0,1,1694,1323.47Z" transform="translate(-1589 -1290)"/><path class="cls-7" d="M1651.32,1323.81c0-.45,0-.91,0-1.37,0-.73.19-1.22,1-.67.37.26.52,0,.76-.09,1.78-.61,2.93.2,3,2.09a12.32,12.32,0,0,1,0,1.49c0,.34.31,1-.39.94s-.3-.65-.34-1c-.06-.53,0-1.07,0-1.61a1.43,1.43,0,0,0-2.85-.07c-.05.66,0,1.32,0,2,0,.38,0,.75-.56.73s-.49-.34-.49-.69Z" transform="translate(-1589 -1290)"/><path class="cls-8" d="M1678.57,1324.85c-.41,1.32-1.42,1.49-2.58,1.42a2.51,2.51,0,0,1-2.18-1.92c-.41-1.15.45-2,1.32-2.52a2.39,2.39,0,0,1,2.91.22c.25.21.69.53.36.9s-.56,0-.81-.26a1.6,1.6,0,0,0-2.34-.08,1.94,1.94,0,0,0,0,2.62,1.54,1.54,0,0,0,2.32-.13C1677.91,1324.77,1678.15,1324.65,1678.57,1324.85Z" transform="translate(-1589 -1290)"/><path class="cls-6" d="M1680.76,1320l.48,0c.61.55-.09,1.42.5,2,2.1-1.18,3.5-.39,3.52,2a3.12,3.12,0,0,1,0,.75c-.13.49.4,1.39-.4,1.4s-.24-.87-.34-1.34a8.65,8.65,0,0,1,0-1.25c0-.62-.2-1.17-.93-1.28s-1.51-.28-1.85.69c-.36.56-.15,1.19-.21,1.79s.15,1-.26,1.39l-.48,0A29.4,29.4,0,0,1,1680.76,1320Z" transform="translate(-1589 -1290)"/><path class="cls-9" d="M1639.25,1326.16l-.48,0a15.16,15.16,0,0,1,0-4.41,3.24,3.24,0,0,0,1.76-.13,1.9,1.9,0,0,1,2.73,1.87c0,.67,0,1.33,0,2,0,.29.17.75-.4.72s-.33-.48-.34-.77c0-.62,0-1.24,0-1.86a1.21,1.21,0,0,0-1.07-1.31c-.68-.15-1.42-.2-1.72.7-.36.56-.15,1.19-.21,1.79S1639.66,1325.75,1639.25,1326.16Z" transform="translate(-1589 -1290)"/><path class="cls-10" d="M1701.74,1323.11v2.49c0,.36,0,.64-.51.64s-.51-.3-.5-.65v-5c0-.36,0-.64.51-.64s.51.3.5.65Z" transform="translate(-1589 -1290)"/><path class="cls-11" d="M1646.22,1323.16c0,.78,0,1.57,0,2.35,0,.31.09.72-.43.71s-.37-.36-.37-.64c0-1.65,0-3.3,0-4.95,0-.27-.07-.63.36-.65s.44.39.44.7C1646.23,1321.51,1646.22,1322.33,1646.22,1323.16Z" transform="translate(-1589 -1290)"/><path class="cls-12" d="M1648.43,1323.82c0-.54,0-1.07,0-1.61,0-.28,0-.64.4-.62s.64.1.63.57c0,1.2,0,2.39,0,3.58,0,.41-.27.45-.57.48s-.46-.23-.46-.55Z" transform="translate(-1589 -1290)"/><path class="cls-13" d="M1656.53,1306.47a.54.54,0,0,1,.48.61c0,1.81,0,3.63,0,5.44,0,.35-.13.55-.51.49Z" transform="translate(-1589 -1290)"/><path class="cls-14" d="M1639.25,1326.16c0-.78,0-1.56,0-2.34,0-.37,0-.77.49-.84,0,.82,0,1.64,0,2.47C1639.66,1325.76,1639.77,1326.15,1639.25,1326.16Z" transform="translate(-1589 -1290)"/><path class="cls-15" d="M1681.24,1326.16c0-.78,0-1.56,0-2.34,0-.37,0-.77.48-.84,0,.82,0,1.64,0,2.46C1681.65,1325.76,1681.76,1326.14,1681.24,1326.16Z" transform="translate(-1589 -1290)"/><path class="cls-15" d="M1680.76,1320v6.15A17.18,17.18,0,0,1,1680.76,1320Z" transform="translate(-1589 -1290)"/><path class="cls-15" d="M1681.74,1322c-.4.35-.49,0-.5-.27,0-.56,0-1.13,0-1.7C1682.11,1320.53,1681.4,1321.41,1681.74,1322Z" transform="translate(-1589 -1290)"/><path class="cls-14" d="M1638.77,1321.77v4.41A8.78,8.78,0,0,1,1638.77,1321.77Z" transform="translate(-1589 -1290)"/><path class="cls-16" d="M1648.86,1320.78c-.32,0-.57-.14-.55-.51a.48.48,0,0,1,.59-.47c.28.07.7.11.63.58S1649.12,1320.71,1648.86,1320.78Z" transform="translate(-1589 -1290)"/><path class="cls-17" d="M1789.51,1315.26l-.06-1.5C1790.39,1314.23,1790.09,1314.74,1789.51,1315.26Z" transform="translate(-1589 -1290)"/><path class="cls-18" d="M1664.57,1313.28l-.11,1.22C1663.77,1314,1663.62,1313.61,1664.57,1313.28Z" transform="translate(-1589 -1290)"/><path class="cls-19" d="M1644.3,1300.77l-.11-1.22C1645.14,1299.88,1645,1300.3,1644.3,1300.77Z" transform="translate(-1589 -1290)"/><path class="cls-20" d="M1639.3,1311.49c.68.35.67.69,0,1Z" transform="translate(-1589 -1290)"/><path class="cls-21" d="M1694,1323.47l0,1C1693.3,1324.16,1693.28,1323.82,1694,1323.47Z" transform="translate(-1589 -1290)"/><path class="cls-22" d="M1713.28,1315c.46,0,.47.37.47.71C1713.06,1315.81,1713.27,1315.34,1713.28,1315Z" transform="translate(-1589 -1290)"/><path class="cls-23" d="M1772.71,1315l0,.67c-.64.1-.52-.33-.48-.71A.27.27,0,0,1,1772.71,1315Z" transform="translate(-1589 -1290)"/><path class="cls-24" d="M1772.71,1315l-.44,0v-.74C1772.76,1314.3,1772.74,1314.66,1772.71,1315Z" transform="translate(-1589 -1290)"/><path class="cls-25" d="M1760.47,1304c0,.36,0,.72-.45.77V1304A.29.29,0,0,1,1760.47,1304Z" transform="translate(-1589 -1290)"/><path class="cls-26" d="M1760.47,1304l-.45,0c0-.36-.18-.8.48-.71Z" transform="translate(-1589 -1290)"/><path class="cls-1" d="M1606.41,1326.85c-2.46,0-4.92-.08-7.37,0a4,4,0,0,1-4.32-4.36c.21-3.52.08-7.07,0-10.6,0-.88.17-1.23,1.15-1.22q10.42.06,20.85,0c.91,0,1.1.31,1.09,1.15,0,3.78,0,7.56,0,11.34a3.44,3.44,0,0,1-3.43,3.6c-2.66.09-5.32,0-8,0Z" transform="translate(-1589 -1290)"/><path class="cls-1" d="M1600.67,1308.46c-1-.11-2.55.51-3.43-.23s-.81-2.22-1.38-3.26c-1.37-2.53-1.87-5.42-3.33-7.91-.25-.44-.4-.83.41-1.07,2.18-.65,4.33-1.42,6.47-2.19,1.2-.44,1.3.43,1.58,1.15.37.93-.39.89-.89,1.07a12.93,12.93,0,0,0-1.51.55.94.94,0,0,0-.5,1.26,1,1,0,0,0,1.19.69,10.85,10.85,0,0,0,2-.58c.51-.21.69-.1.94.37.72,1.39.76,1.38-.74,1.9-.82.29-1.66.51-2.48.82-.65.24-1.07.72-.78,1.45a1.08,1.08,0,0,0,1.51.67c1.1-.37,2.22-.68,3.3-1.09s.88.53,1.12,1,.44,1-.38,1.18a13.84,13.84,0,0,0-1.55.47c-.6.21-1.07.57-.92,1.28a1.11,1.11,0,0,0,1.43.86,18.14,18.14,0,0,0,2-.63c.81-.28,1,.06.74.78-.29.91-.72,1.6-1.88,1.5C1602.72,1308.4,1601.8,1308.46,1600.67,1308.46Z" transform="translate(-1589 -1290)"/><path class="cls-27" d="M1607.6,1308.46c1.07-3.61,2.8-6.86,4-10.32.4-1.18,1.14-.31,1.72-.24s.85.4.58,1.13c-1.09,3-2.57,5.81-3.48,8.86a.73.73,0,0,1-.82.57C1608.92,1308.44,1608.26,1308.46,1607.6,1308.46Z" transform="translate(-1589 -1290)"/><path class="cls-27" d="M1612.88,1308.46c.79-3.26,2.43-6,3.46-9,.31-.88,1.11-.09,1.68,0s.87.21.58.91c-1,2.5-2,5-3,7.56a.75.75,0,0,1-.85.52Z" transform="translate(-1589 -1290)"/><path class="cls-28" d="M1618.5,1297.25l-4.5-1.47c1-.61,1.88-1.13,2.74-1.67.46-.28.74-.21.9.34C1617.89,1295.31,1618.16,1296.17,1618.5,1297.25Z" transform="translate(-1589 -1290)"/><path class="cls-29" d="M1752,1310.63c.35.18,1.13-.38,1.23.6.08.81.17,1.55-1,1.71a6.55,6.55,0,0,1-2.2.27,1.41,1.41,0,0,1-1.2-1.49c-.05-.9.67-.82,1.19-.91A18,18,0,0,1,1752,1310.63Z" transform="translate(-1589 -1290)"/><path class="cls-30" d="M1679.79,1310.64a3.67,3.67,0,0,1,1.34.09,1.41,1.41,0,0,1,.65,1.37c0,.64-.49.57-.84.71a5,5,0,0,1-2,.44,1.47,1.47,0,0,1-1.57-1.43c-.11-1,.77-.89,1.35-1a5.91,5.91,0,0,1,1.12-.08Z" transform="translate(-1589 -1290)"/><path class="cls-28" d="M1736.62,1305.45c.68,0,1.58,0,2,1,.19.44.17.8-.41.93-1,.23-2.1.46-3.15.72-.34.08-.51.1-.57-.34C1734.32,1306.35,1735,1305.48,1736.62,1305.45Z" transform="translate(-1589 -1290)"/><path class="cls-27" d="M1633.6,1321a2.18,2.18,0,0,1,2.3,2.37,2.43,2.43,0,0,1-4.86-.11A2.26,2.26,0,0,1,1633.6,1321Z" transform="translate(-1589 -1290)"/><path class="cls-31" d="M1660.29,1323.54h-.12c-.46-.16-1.29.38-1.34-.34s.83-.87,1.48-1a.87.87,0,0,1,.48,0c.51.22,1.24.41,1.16,1s-.76.17-1.16.26A2.08,2.08,0,0,1,1660.29,1323.54Z" transform="translate(-1589 -1290)"/><path class="cls-32" d="M1689.83,1322.22a1.88,1.88,0,0,1,1.67,1.81,2,2,0,0,1-1.92,1.58,1.7,1.7,0,1,1,.25-3.39Z" transform="translate(-1589 -1290)"/><path class="cls-32" d="M1698.05,1323.87a1.57,1.57,0,0,1-1.65,1.75,1.55,1.55,0,0,1-1.66-1.74c0-1,.49-1.65,1.59-1.67A1.53,1.53,0,0,1,1698.05,1323.87Z" transform="translate(-1589 -1290)"/><path class="cls-33" d="M1607.87,1313.45c.5,0,1,.08,1.48.17,1.83.34,1.84.35,1.68,2.16,0,.37.16.88-.49,1s-1,.06-1.29-.47a1.76,1.76,0,0,0-1.85-1c-.39,0-.92-.17-1.08.36s.24,1,.69,1.2a31,31,0,0,0,2.91,1.38,2.14,2.14,0,0,1,1.53,2.17,2.47,2.47,0,0,1-1.61,2.39c-1.9.86-3.8.62-5.75.37-.94-.13-.88-.75-.72-1.36s-.21-1.25.49-1.53,1.15.29,1.61.78c.72.77,1.68.52,2.58.44.26,0,.25-.28.25-.49a.89.89,0,0,0-.64-.82c-.91-.4-1.83-.77-2.7-1.23a2.79,2.79,0,0,1,.24-5A7.05,7.05,0,0,1,1607.87,1313.45Z" transform="translate(-1589 -1290)"/></svg>